<?xml version="1.0" encoding="UTF-8"?>
<svg id="Camada_2" data-name="Camada 2" xmlns="http://www.w3.org/2000/svg" width="420" height="63.95" viewBox="0 0 420 63.95">
  <g id="Camada_2-2" data-name="Camada 2">
    <g>
      <path d="m166.5,46.49c0,1.16-.2,2.39-.6,3.72-.4,1.32-1.05,2.55-1.95,3.68s-2.08,2.08-3.52,2.83c-1.44.76-3.21,1.14-5.31,1.14h-35.63c-.67,0-1.3-.12-1.88-.36-.58-.24-1.08-.57-1.5-.99s-.75-.92-.99-1.5-.36-1.2-.36-1.88V10.82c0-.65.12-1.26.36-1.84s.57-1.08.99-1.52c.42-.43.92-.77,1.5-1.01s1.2-.36,1.88-.36h31.41c1.16,0,2.39.2,3.72.61,1.32.41,2.56,1.06,3.7,1.97,1.14.9,2.09,2.08,2.85,3.52s1.14,3.21,1.14,5.31v1.77c0,1.66-.28,3.45-.83,5.36s-1.44,3.72-2.67,5.43c1.06.65,2.05,1.43,2.98,2.35s1.74,1.97,2.44,3.18c.7,1.2,1.25,2.56,1.66,4.08.41,1.52.61,3.19.61,5.02v1.81h0Zm-9.39-1.81c0-1.23-.19-2.33-.58-3.3-.39-.97-.93-1.81-1.62-2.51s-1.54-1.23-2.53-1.61-2.09-.56-3.32-.56h-21.16v-9.46h16.93c1.23,0,2.33-.19,3.32-.56s1.83-.91,2.53-1.61,1.23-1.53,1.61-2.51.56-2.08.56-3.3v-1.77c0-1.35-.65-2.02-1.95-2.02h-26.75v33h30.97c.17,0,.37,0,.61-.04.24-.02.46-.1.65-.22.19-.12.36-.32.51-.61.14-.29.22-.69.22-1.19v-1.73h0Z" fill="#fff" stroke-width="0"/>
      <path d="m222.2,57.86h-42.82c-.67,0-1.3-.12-1.88-.36s-1.08-.57-1.5-.99-.75-.92-.99-1.5-.36-1.2-.36-1.88V6.09h9.39v42.38h38.16v9.39Z" fill="#fff" stroke-width="0"/>
      <path d="m282.64,36.92c0,3.15-.54,6.05-1.62,8.7s-2.59,4.93-4.51,6.86c-1.93,1.93-4.21,3.42-6.84,4.49s-5.51,1.61-8.61,1.61h-12.71c-3.1,0-5.98-.54-8.63-1.61-2.65-1.07-4.93-2.57-6.86-4.49-1.93-1.93-3.44-4.21-4.53-6.86s-1.64-5.55-1.64-8.7v-9.89c0-3.13.55-6.02,1.64-8.68,1.1-2.66,2.61-4.95,4.53-6.86s4.21-3.41,6.86-4.49,5.52-1.62,8.63-1.62h12.71c3.1,0,5.97.54,8.61,1.62,2.64,1.08,4.92,2.58,6.84,4.49,1.93,1.91,3.43,4.2,4.51,6.86,1.08,2.66,1.62,5.55,1.62,8.68,0,0,0,9.89,0,9.89Zm-9.39-9.89c0-1.85-.29-3.53-.88-5.04-.59-1.5-1.42-2.79-2.49-3.86-1.07-1.07-2.36-1.9-3.86-2.49s-3.16-.88-4.96-.88h-12.71c-1.83,0-3.5.29-5,.88s-2.8,1.42-3.88,2.49-1.92,2.36-2.51,3.86-.88,3.18-.88,5.04v9.89c0,1.85.29,3.53.88,5.04.59,1.5,1.43,2.79,2.51,3.86s2.38,1.9,3.88,2.49,3.17.88,5,.88h12.64c1.83,0,3.5-.29,5-.88s2.8-1.42,3.88-2.49,1.92-2.36,2.51-3.86.88-3.18.88-5.04v-9.89h-.01Z" fill="#fff" stroke-width="0"/>
      <path d="m343,53.13c0,.67-.12,1.3-.36,1.88s-.57,1.08-.99,1.5-.92.75-1.5.99-1.2.36-1.88.36h-33.86c-.87,0-1.8-.1-2.8-.31s-1.99-.52-2.96-.96-1.91-.99-2.8-1.68c-.89-.69-1.68-1.52-2.36-2.49-.69-.97-1.23-2.11-1.64-3.39s-.61-2.74-.61-4.35v-25.42c0-.87.1-1.8.31-2.8s.52-1.99.96-2.96,1-1.91,1.7-2.8,1.53-1.68,2.51-2.36c.97-.69,2.1-1.23,3.38-1.64s2.72-.61,4.33-.61h38.16v9.39h-38.16c-1.23,0-2.17.32-2.82.97s-.97,1.61-.97,2.89v25.34c0,1.2.33,2.14.99,2.8s1.59.99,2.8.99h29.21v-11.77h-24.98v-9.46h29.64c.67,0,1.3.13,1.88.38s1.08.6,1.5,1.03.75.93.99,1.5.36,1.17.36,1.82v21.16h-.03Z" fill="#fff" stroke-width="0"/>
      <path d="m362.24,57.86h-9.39V6.09h9.39v51.77Z" fill="#fff" stroke-width="0"/>
      <path d="m420,15.48h-20.69v42.38h-9.39V15.48h-20.72V6.09h50.79v9.39h.01Z" fill="#fff" stroke-width="0"/>
    </g>
    <g>
      <path d="m36.07,0h19.68v11.48h-19.68V0Z" fill="#ffc600" fill-rule="evenodd" stroke-width="0"/>
      <path d="m11.48,4.92h19.68v19.68H11.48V4.92Z" fill="#ffb81c" fill-rule="evenodd" stroke-width="0"/>
      <path d="m36.07,39.35v-22.96h31.15v22.96h-31.15Z" fill="#236192" fill-rule="evenodd" stroke-width="0"/>
      <path d="m0,29.51h31.15v31.15H0v-31.15Z" fill="#9678d3" fill-rule="evenodd" stroke-width="0"/>
      <path d="m36.07,63.95h19.68v-19.68h-19.68v19.68Z" fill="#ffc600" fill-rule="evenodd" stroke-width="0"/>
    </g>
    <path d="m86.24,63.95V0h1.66v63.95h-1.66Z" fill="#ffc600" stroke-width="0"/>
  </g>
</svg>